<svg width="48" height="48" viewBox="0 0 48 48" fill="none" xmlns="http://www.w3.org/2000/svg">
<path d="M6.61286 34.7514L18.6129 10.2514C20.8077 5.77036 27.1948 5.77036 29.3896 10.2514L41.3896 34.7514C41.792 35.573 42.0771 36.5697 41.4431 37.2293C37.2514 41.5904 10.7511 41.5904 6.55936 37.2293C5.9254 36.5697 6.21044 35.573 6.61286 34.7514Z" fill="#FDDDD1"/>
<path fill-rule="evenodd" clip-rule="evenodd" d="M27.3684 11.2411C25.9967 8.44046 22.0047 8.44046 20.633 11.2411L8.63296 35.7411C8.5976 35.8133 8.56703 35.8805 8.54106 35.9425C8.81423 36.1116 9.23531 36.3212 9.85245 36.5437C10.8227 36.8935 12.081 37.2065 13.5733 37.4656C16.5532 37.9831 20.2557 38.2502 24.0007 38.2502C27.7457 38.2502 31.4482 37.9831 34.4281 37.4656C35.9204 37.2065 37.1787 36.8935 38.1489 36.5437C38.7661 36.3212 39.1872 36.1116 39.4603 35.9425C39.4344 35.8805 39.4038 35.8133 39.3684 35.7411L27.3684 11.2411ZM16.5917 9.26172C19.6095 3.10026 28.3919 3.10026 31.4097 9.26172L43.4097 33.7617C43.6587 34.2701 43.9634 35.0069 44.0439 35.8329C44.1297 36.714 43.9641 37.8528 43.0648 38.7885C42.1823 39.7066 40.9216 40.3276 39.6753 40.7769C38.3775 41.2448 36.8451 41.6133 35.198 41.8993C31.8992 42.4721 27.9287 42.7502 24.0007 42.7502C20.0727 42.7502 16.1022 42.4721 12.8034 41.8993C11.1563 41.6133 9.62386 41.2448 8.32614 40.7769C7.07983 40.3276 5.8191 39.7066 4.93665 38.7885C4.03728 37.8528 3.87168 36.714 3.95753 35.8329C4.03801 35.0069 4.34269 34.2701 4.59168 33.7617L6.59882 34.7448L4.59168 33.7617L16.5917 9.26172Z" fill="#DB2030"/>
<path fill-rule="evenodd" clip-rule="evenodd" d="M23.9531 16.4531C25.1958 16.4531 26.2031 17.4605 26.2031 18.7031L26.2031 25.5C26.2031 26.7426 25.1958 27.75 23.9531 27.75C22.7105 27.75 21.7031 26.7426 21.7031 25.5L21.7031 18.7031C21.7031 17.4605 22.7105 16.4531 23.9531 16.4531Z" fill="#DB2030"/>
<path d="M26.9336 33.0215C26.9336 34.6665 25.6001 36 23.9551 36C22.3101 36 20.9766 34.6665 20.9766 33.0215C20.9766 31.3765 22.3101 30.043 23.9551 30.043C25.6001 30.043 26.9336 31.3765 26.9336 33.0215Z" fill="#DB2030"/>
</svg>
