<svg width="24" height="24" viewBox="0 0 24 24" fill="current" stroke="current" xmlns="http://www.w3.org/2000/svg">
 <path
  d="M12 21.375C17.1777 21.375 21.375 17.1777 21.375 12C21.375 6.82233 17.1777 2.625 12 2.625C6.82233 2.625 2.625 6.82233 2.625 12C2.625 17.1777 6.82233 21.375 12 21.375Z"
  fill="#7AE960" />
 <path fill-rule="evenodd" clip-rule="evenodd"
  d="M16.5832 7.49414C17.0007 7.95433 16.9661 8.6658 16.5059 9.08325C15.3386 10.1421 14.5427 11.0205 13.8844 12.0479C13.2218 13.0822 12.6678 14.3156 12.0397 16.1199C11.9114 16.4885 11.6012 16.7643 11.22 16.8485C10.8389 16.9327 10.4414 16.8134 10.1696 16.5332L7.44236 13.7207C7.00983 13.2746 7.02079 12.5624 7.46684 12.1299C7.91288 11.6973 8.62511 11.7083 9.05764 12.1543L10.547 13.6902C10.9907 12.5988 11.4501 11.6767 11.9899 10.8341C12.7921 9.58207 13.7409 8.55366 14.9941 7.41677C15.4543 6.99931 16.1658 7.03396 16.5832 7.49414Z"
  fill="#1AAE18" />
 <path fill-rule="evenodd" clip-rule="evenodd"
  d="M12 3.75C7.44365 3.75 3.75 7.44365 3.75 12C3.75 16.5563 7.44365 20.25 12 20.25C16.5563 20.25 20.25 16.5563 20.25 12C20.25 7.44365 16.5563 3.75 12 3.75ZM1.5 12C1.5 6.20101 6.20101 1.5 12 1.5C17.799 1.5 22.5 6.20101 22.5 12C22.5 17.799 17.799 22.5 12 22.5C6.20101 22.5 1.5 17.799 1.5 12Z"
  fill="#1AAE18" />
</svg>