<svg width="24" height="24" viewBox="0 0 24 24" fill="none" xmlns="http://www.w3.org/2000/svg">
<path d="M3.3057 17.3756L9.3057 5.12562C10.4031 2.88509 13.5967 2.88509 14.6941 5.12562L20.6941 17.3756C20.8953 17.7864 21.0378 18.2848 20.7208 18.6146C18.625 20.7951 5.37482 20.7951 3.27895 18.6146C2.96197 18.2848 3.10449 17.7864 3.3057 17.3756Z" fill="#ADC7EC"/>
<path fill-rule="evenodd" clip-rule="evenodd" d="M13.6837 5.62047C12.9979 4.22014 11.0019 4.22014 10.316 5.62047L4.31599 17.8705C4.29831 17.9066 4.28303 17.9402 4.27004 17.9712C4.40662 18.0557 4.61717 18.1605 4.92574 18.2718C5.41084 18.4467 6.04003 18.6032 6.78615 18.7327C8.27612 18.9914 10.1274 19.125 11.9999 19.125C13.8724 19.125 15.7236 18.9914 17.2136 18.7327C17.9597 18.6032 18.5889 18.4467 19.074 18.2718C19.3826 18.1605 19.5931 18.0557 19.7297 17.9712C19.7167 17.9402 19.7014 17.9066 19.6837 17.8705L13.6837 5.62047ZM8.29535 4.63077C9.80428 1.55004 14.1954 1.55004 15.7044 4.63077L21.7044 16.8808C21.8289 17.1349 21.9812 17.5034 22.0214 17.9164C22.0644 18.3569 21.9816 18.9263 21.5319 19.3942C21.0907 19.8532 20.4603 20.1637 19.8371 20.3884C19.1883 20.6223 18.4221 20.8065 17.5985 20.9495C15.9491 21.236 13.9639 21.375 11.9999 21.375C10.0359 21.375 8.0506 21.236 6.40121 20.9495C5.57765 20.8065 4.81144 20.6223 4.16258 20.3884C3.53942 20.1637 2.90906 19.8532 2.46784 19.3942C2.01815 18.9263 1.93535 18.3569 1.97828 17.9164C2.01852 17.5034 2.17086 17.1349 2.29535 16.8808L3.29892 17.3723L2.29535 16.8808L8.29535 4.63077Z" fill="#27509B"/>
<path fill-rule="evenodd" clip-rule="evenodd" d="M11.9761 8.22656C12.5974 8.22656 13.1011 8.73024 13.1011 9.35156L13.1011 12.75C13.1011 13.3713 12.5974 13.875 11.9761 13.875C11.3548 13.875 10.8511 13.3713 10.8511 12.75L10.8511 9.35156C10.8511 8.73024 11.3548 8.22656 11.9761 8.22656Z" fill="#27509B"/>
<path d="M13.4653 16.5107C13.4653 17.3332 12.7986 18 11.9761 18C11.1536 18 10.4868 17.3332 10.4868 16.5107C10.4868 15.6882 11.1536 15.0215 11.9761 15.0215C12.7986 15.0215 13.4653 15.6882 13.4653 16.5107Z" fill="#27509B"/>
</svg>
